<svg width="12" height="12" viewBox="0 0 12 12" fill="none" xmlns="http://www.w3.org/2000/svg">
<path fill-rule="evenodd" clip-rule="evenodd" d="M6.70691 8.02734C6.02895 8.46229 5.22256 8.71452 4.35726 8.71452C1.95081 8.71452 0 6.76371 0 4.35726C0 1.95081 1.95081 0 4.35726 0C6.76371 0 8.71452 1.95081 8.71452 4.35726C8.71452 5.22255 8.46229 6.02893 8.02736 6.70689L11.7265 10.4061C12.0912 10.7707 12.0912 11.3619 11.7265 11.7265C11.3619 12.0911 10.7707 12.0911 10.4061 11.7265L6.70691 8.02734ZM7.46959 4.35726C7.46959 6.07615 6.07615 7.46959 4.35726 7.46959C2.63837 7.46959 1.24493 6.07615 1.24493 4.35726C1.24493 2.63837 2.63837 1.24493 4.35726 1.24493C6.07615 1.24493 7.46959 2.63837 7.46959 4.35726Z" fill="#727272"/>
</svg>
